<?xml version="1.0" standalone="no"?>
<!DOCTYPE svg PUBLIC "-//W3C//DTD SVG 20010904//EN"
 "http://www.w3.org/TR/2001/REC-SVG-20010904/DTD/svg10.dtd">
<svg version="1.0" xmlns="http://www.w3.org/2000/svg"
 width="1024.000000pt" height="1024.000000pt" viewBox="0 0 1024.000000 1024.000000"
 preserveAspectRatio="xMidYMid meet">

<g transform="translate(0.000000,1024.000000) scale(0.100000,-0.100000)"
fill="#000000" stroke="none">
<path d="M0 5120 l0 -5120 5120 0 5120 0 0 5120 0 5120 -5120 0 -5120 0 0
-5120z m5655 2446 c53 -24 119 -89 137 -134 6 -15 14 -46 19 -70 9 -46 6 -59
-239 -1114 l-108 -468 736 0 c848 0 807 4 896 -84 74 -74 93 -156 64 -262 -17
-58 26 -11 -770 -849 -558 -587 -901 -948 -1180 -1245 -495 -525 -548 -570
-675 -570 -82 0 -170 43 -215 103 -32 44 -60 122 -60 167 0 24 51 262 175 810
25 113 73 324 105 470 33 146 62 274 65 286 4 20 -2 21 -153 37 -86 10 -321
35 -522 57 -201 22 -428 47 -505 55 -177 18 -226 35 -286 95 -78 79 -101 198
-55 295 25 55 203 242 1181 1245 303 311 678 697 835 857 316 326 337 343 444
343 43 0 76 -7 111 -24z"/>
<path d="M5089 6573 c-52 -54 -211 -219 -354 -368 -285 -296 -548 -566 -809
-832 -94 -95 -168 -174 -165 -176 2 -2 81 -11 174 -21 94 -9 325 -35 515 -56
190 -22 384 -44 432 -49 50 -6 103 -18 126 -30 75 -38 122 -119 122 -208 0
-32 -101 -483 -205 -918 -48 -201 -56 -238 -52 -241 2 -2 163 164 357 369 195
204 409 428 475 497 66 69 194 204 285 300 233 248 411 433 429 448 12 10
-115 12 -641 12 -473 0 -664 3 -689 12 -84 29 -146 109 -156 201 -4 41 3 86
30 198 20 79 77 322 127 539 50 217 93 401 95 408 2 6 3 12 2 12 -2 0 -46 -44
-98 -97z"/>
</g>
</svg>
